<?plantuml 1.2026.1?><svg xmlns="http://www.w3.org/2000/svg" xmlns:xlink="http://www.w3.org/1999/xlink" contentStyleType="text/css" data-diagram-type="DESCRIPTION" height="1901.5625px" preserveAspectRatio="none" style="width:1578px;height:1901px;background:#FFFFFF;" version="1.1" viewBox="0 0 1578 1901" width="1578.125px" zoomAndPan="magnify"><title>Grafascope (core + vmagent + fluent-bit + demo-apps)</title><defs/><g><g class="title" data-source-line="1"><text fill="#000000" font-family="'Inter'" font-size="21.875" font-weight="bold" lengthAdjust="spacing" textLength="682.1838" x="437.4544" y="35.9299">Grafascope (core + vmagent + fluent-bit + demo-apps)</text></g><!--cluster ns--><g class="cluster" data-qualified-name="ns" data-source-line="50" id="ent0002"><rect fill="#F9FAFB" height="1507.125" rx="7.8125" ry="7.8125" style="stroke:#D1D5DB;stroke-width:1.5625;" width="1487.5" x="10.9375" y="69.2139"/><path d="M469.2749,69.2139 L469.2749,83.7402 L453.6499,99.3652 L10.9375,99.3652" fill="none" style="stroke:#D1D5DB;stroke-width:1.5625;"/><text fill="#111827" font-family="'Inter'" font-size="21.875" font-weight="bold" lengthAdjust="spacing" textLength="442.7124" x="15.625" y="91.0812">Kubernetes namespace: grafascope</text></g><!--cluster demo--><g class="cluster" data-qualified-name="ns.demo" data-source-line="52" id="ent0003"><path d="M204.6875,619.4951 L335.968,619.4951 A11.7188,11.7188 0 0 1 343.7805,627.3076 L354.718,654.334 L518.75,654.334 A7.8125,7.8125 0 0 1 526.5625,662.1465 L526.5625,1208.2139 A7.8125,7.8125 0 0 1 518.75,1216.0264 L204.6875,1216.0264 A7.8125,7.8125 0 0 1 196.875,1208.2139 L196.875,627.3076 A7.8125,7.8125 0 0 1 204.6875,619.4951" fill="#FEF3C7" style="stroke:#D1D5DB;stroke-width:2.3438;"/><line style="stroke:#D1D5DB;stroke-width:2.3438;" x1="196.875" x2="354.718" y1="654.334" y2="654.334"/><text fill="#111827" font-family="'Inter'" font-size="21.875" font-weight="bold" lengthAdjust="spacing" textLength="137.5305" x="203.125" y="642.925">Demo apps</text></g><!--cluster scrapers--><g class="cluster" data-qualified-name="ns.scrapers" data-source-line="59" id="ent0008"><path d="M93.75,173.9014 L196.0739,173.9014 A11.7188,11.7188 0 0 1 203.8864,181.7139 L214.8239,208.7402 L625,208.7402 A7.8125,7.8125 0 0 1 632.8125,216.5527 L632.8125,549.1826 A7.8125,7.8125 0 0 1 625,556.9951 L93.75,556.9951 A7.8125,7.8125 0 0 1 85.9375,549.1826 L85.9375,181.7139 A7.8125,7.8125 0 0 1 93.75,173.9014" fill="#E0E7FF" style="stroke:#D1D5DB;stroke-width:2.3438;"/><line style="stroke:#D1D5DB;stroke-width:2.3438;" x1="85.9375" x2="214.8239" y1="208.7402" y2="208.7402"/><text fill="#111827" font-family="'Inter'" font-size="21.875" font-weight="bold" lengthAdjust="spacing" textLength="108.5739" x="92.1875" y="197.3312">Scrapers</text></g><!--cluster core--><g class="cluster" data-qualified-name="ns.core" data-source-line="67" id="ent0014"><path d="M675,821.9951 L725.4562,821.9951 A11.7188,11.7188 0 0 1 733.2687,829.8076 L744.2062,856.834 L1403.125,856.834 A7.8125,7.8125 0 0 1 1410.9375,864.6465 L1410.9375,1493.5264 A7.8125,7.8125 0 0 1 1403.125,1501.3389 L675,1501.3389 A7.8125,7.8125 0 0 1 667.1875,1493.5264 L667.1875,829.8076 A7.8125,7.8125 0 0 1 675,821.9951" fill="#DCFCE7" style="stroke:#D1D5DB;stroke-width:2.3438;"/><line style="stroke:#D1D5DB;stroke-width:2.3438;" x1="667.1875" x2="744.2062" y1="856.834" y2="856.834"/><text fill="#111827" font-family="'Inter'" font-size="21.875" font-weight="bold" lengthAdjust="spacing" textLength="56.7062" x="673.4375" y="845.425">Core</text></g><!--entity svcA--><g class="entity" data-qualified-name="ns.demo.svcA" data-source-line="53" id="ent0004"><rect fill="#EDE9FE" height="97.8027" rx="7.8125" ry="7.8125" style="stroke:#6366F1;stroke-width:0.7813;" width="196.3028" x="262.7813" y="889.1826"/><rect fill="#EDE9FE" height="15.625" style="stroke:#6366F1;stroke-width:0.7813;" width="23.4375" x="427.834" y="896.9951"/><rect fill="#EDE9FE" height="3.125" style="stroke:#6366F1;stroke-width:0.7813;" width="6.25" x="424.709" y="900.1201"/><rect fill="#EDE9FE" height="3.125" style="stroke:#6366F1;stroke-width:0.7813;" width="6.25" x="424.709" y="906.3701"/><text fill="#111827" font-family="'Inter'" font-size="21.875" lengthAdjust="spacing" textLength="99.6552" x="286.2188" y="940.7375">service&#8209;a</text><text fill="#111827" font-family="'Inter'" font-size="21.875" lengthAdjust="spacing" textLength="133.8028" x="286.2188" y="966.2014">Deployment</text></g><!--entity svcB--><g class="entity" data-qualified-name="ns.demo.svcB" data-source-line="54" id="ent0005"><rect fill="#EDE9FE" height="97.8027" rx="7.8125" ry="7.8125" style="stroke:#6366F1;stroke-width:0.7813;" width="196.3028" x="262.7813" y="1080.7295"/><rect fill="#EDE9FE" height="15.625" style="stroke:#6366F1;stroke-width:0.7813;" width="23.4375" x="427.834" y="1088.542"/><rect fill="#EDE9FE" height="3.125" style="stroke:#6366F1;stroke-width:0.7813;" width="6.25" x="424.709" y="1091.667"/><rect fill="#EDE9FE" height="3.125" style="stroke:#6366F1;stroke-width:0.7813;" width="6.25" x="424.709" y="1097.917"/><text fill="#111827" font-family="'Inter'" font-size="21.875" lengthAdjust="spacing" textLength="100.1358" x="286.2188" y="1132.2844">service&#8209;b</text><text fill="#111827" font-family="'Inter'" font-size="21.875" lengthAdjust="spacing" textLength="133.8028" x="286.2188" y="1157.7482">Deployment</text></g><!--entity loadgen--><g class="entity" data-qualified-name="ns.demo.loadgen" data-source-line="55" id="ent0006"><rect fill="#EDE9FE" height="97.8027" rx="7.8125" ry="7.8125" style="stroke:#6366F1;stroke-width:0.7813;" width="225.1633" x="234.2969" y="686.6826"/><rect fill="#EDE9FE" height="15.625" style="stroke:#6366F1;stroke-width:0.7813;" width="23.4375" x="428.2101" y="694.4951"/><rect fill="#EDE9FE" height="3.125" style="stroke:#6366F1;stroke-width:0.7813;" width="6.25" x="425.0851" y="697.6201"/><rect fill="#EDE9FE" height="3.125" style="stroke:#6366F1;stroke-width:0.7813;" width="6.25" x="425.0851" y="703.8701"/><text fill="#111827" font-family="'Inter'" font-size="21.875" lengthAdjust="spacing" textLength="162.6633" x="257.7344" y="738.2375">load&#8209;generator</text><text fill="#111827" font-family="'Inter'" font-size="21.875" lengthAdjust="spacing" textLength="133.8028" x="257.7344" y="763.7014">Deployment</text></g><!--entity vmagent--><g class="entity" data-qualified-name="ns.scrapers.vmagent" data-source-line="60" id="ent0009"><rect fill="#DBEAFE" height="97.8027" rx="7.8125" ry="7.8125" style="stroke:#6366F1;stroke-width:0.7813;" width="196.3028" x="369.0313" y="241.0889"/><rect fill="#DBEAFE" height="15.625" style="stroke:#6366F1;stroke-width:0.7813;" width="23.4375" x="534.084" y="248.9014"/><rect fill="#DBEAFE" height="3.125" style="stroke:#6366F1;stroke-width:0.7813;" width="6.25" x="530.959" y="252.0264"/><rect fill="#DBEAFE" height="3.125" style="stroke:#6366F1;stroke-width:0.7813;" width="6.25" x="530.959" y="258.2764"/><text fill="#111827" font-family="'Inter'" font-size="21.875" lengthAdjust="spacing" textLength="97.4442" x="392.4688" y="292.6437">vmagent</text><text fill="#111827" font-family="'Inter'" font-size="21.875" lengthAdjust="spacing" textLength="133.8028" x="392.4688" y="318.1076">Deployment</text></g><!--entity fluentbit--><g class="entity" data-qualified-name="ns.scrapers.fluentbit" data-source-line="61" id="ent0010"><polygon fill="#DBEAFE" points="123.4063,256.7139,139.0313,241.0889,314.0908,241.0889,314.0908,323.2666,298.4658,338.8916,123.4063,338.8916,123.4063,256.7139" style="stroke:#181818;stroke-width:0.7813;"/><line style="stroke:#181818;stroke-width:0.7813;" x1="298.4658" x2="314.0908" y1="256.7139" y2="241.0889"/><line style="stroke:#181818;stroke-width:0.7813;" x1="123.4063" x2="298.4658" y1="256.7139" y2="256.7139"/><line style="stroke:#181818;stroke-width:0.7813;" x1="298.4658" x2="298.4658" y1="256.7139" y2="338.8916"/><text fill="#000000" font-family="'Inter'" font-size="21.875" lengthAdjust="spacing" textLength="105.0385" x="146.8438" y="292.6437">Fluent Bit</text><text fill="#000000" font-family="'Inter'" font-size="21.875" lengthAdjust="spacing" textLength="128.1845" x="146.8438" y="318.1076">DaemonSet</text></g><!--entity logfiles--><g class="entity" data-qualified-name="ns.scrapers.logfiles" data-source-line="62" id="ent0011"><rect fill="#FFF7ED" height="86.8652" rx="7.8125" ry="7.8125" style="stroke:#181818;stroke-width:0.7813;" width="311.3297" x="124.0156" y="432.6357"/><polygon fill="#FFF7ED" points="408.7828,440.4482,408.7828,462.3232,427.5328,462.3232,427.5328,449.8232,418.1578,440.4482,408.7828,440.4482" style="stroke:#181818;stroke-width:0.7813;"/><line style="stroke:#181818;stroke-width:0.7813;" x1="418.1578" x2="418.1578" y1="440.4482" y2="449.8232"/><line style="stroke:#181818;stroke-width:0.7813;" x1="427.5328" x2="418.1578" y1="449.8232" y2="449.8232"/><text fill="#000000" font-family="'Inter'" font-size="21.875" lengthAdjust="spacing" textLength="264.4547" x="139.6406" y="473.2531">/var/log/containers/*.log</text><text fill="#000000" font-family="'Inter'" font-size="21.875" lengthAdjust="spacing" textLength="163.6246" x="139.6406" y="498.717">(node log files)</text></g><!--entity grafana--><g class="entity" data-qualified-name="ns.core.grafana" data-source-line="68" id="ent0015"><rect fill="#E0F2FE" height="97.8027" rx="7.8125" ry="7.8125" style="stroke:#6366F1;stroke-width:0.7813;" width="196.3028" x="936.2187" y="889.1826"/><rect fill="#E0F2FE" height="15.625" style="stroke:#6366F1;stroke-width:0.7813;" width="23.4375" x="1101.2715" y="896.9951"/><rect fill="#E0F2FE" height="3.125" style="stroke:#6366F1;stroke-width:0.7813;" width="6.25" x="1098.1465" y="900.1201"/><rect fill="#E0F2FE" height="3.125" style="stroke:#6366F1;stroke-width:0.7813;" width="6.25" x="1098.1465" y="906.3701"/><text fill="#111827" font-family="'Inter'" font-size="21.875" lengthAdjust="spacing" textLength="87.7243" x="959.6562" y="940.7375">Grafana</text><text fill="#111827" font-family="'Inter'" font-size="21.875" lengthAdjust="spacing" textLength="133.8028" x="959.6562" y="966.2014">Deployment</text></g><!--entity vmetrics--><g class="entity" data-qualified-name="ns.core.vmetrics" data-source-line="69" id="ent0016"><path d="M937.2969,1383.2139 C937.2969,1367.5889 1034.3763,1367.5889 1034.3763,1367.5889 C1034.3763,1367.5889 1131.4558,1367.5889 1131.4558,1383.2139 L1131.4558,1448.2041 C1131.4558,1463.8291 1034.3763,1463.8291 1034.3763,1463.8291 C1034.3763,1463.8291 937.2969,1463.8291 937.2969,1448.2041 L937.2969,1383.2139" fill="#ECFDF5" style="stroke:#10B981;stroke-width:0.7813;"/><path d="M937.2969,1383.2139 C937.2969,1398.8389 1034.3763,1398.8389 1034.3763,1398.8389 C1034.3763,1398.8389 1131.4558,1398.8389 1131.4558,1383.2139" fill="none" style="stroke:#10B981;stroke-width:0.7813;"/><text fill="#064E3B" font-family="'Inter'" font-size="21.875" lengthAdjust="spacing" textLength="162.9089" x="952.9219" y="1425.3937">VictoriaMetrics</text><text fill="#064E3B" font-family="'Inter'" font-size="21.875" lengthAdjust="spacing" textLength="121.4661" x="952.9219" y="1450.8576">StatefulSet</text></g><!--entity vlogs--><g class="entity" data-qualified-name="ns.core.vlogs" data-source-line="70" id="ent0017"><path d="M717.2031,1383.2139 C717.2031,1367.5889 800.0072,1367.5889 800.0072,1367.5889 C800.0072,1367.5889 882.8113,1367.5889 882.8113,1383.2139 L882.8113,1448.2041 C882.8113,1463.8291 800.0072,1463.8291 800.0072,1463.8291 C800.0072,1463.8291 717.2031,1463.8291 717.2031,1448.2041 L717.2031,1383.2139" fill="#ECFDF5" style="stroke:#10B981;stroke-width:0.7813;"/><path d="M717.2031,1383.2139 C717.2031,1398.8389 800.0072,1398.8389 800.0072,1398.8389 C800.0072,1398.8389 882.8113,1398.8389 882.8113,1383.2139" fill="none" style="stroke:#10B981;stroke-width:0.7813;"/><text fill="#064E3B" font-family="'Inter'" font-size="21.875" lengthAdjust="spacing" textLength="134.3582" x="732.8281" y="1425.3937">VictoriaLogs</text><text fill="#064E3B" font-family="'Inter'" font-size="21.875" lengthAdjust="spacing" textLength="121.4661" x="732.8281" y="1450.8576">StatefulSet</text></g><!--entity vtraces--><g class="entity" data-qualified-name="ns.core.vtraces" data-source-line="71" id="ent0018"><path d="M1185.9844,1383.2139 C1185.9844,1367.5889 1279.6833,1367.5889 1279.6833,1367.5889 C1279.6833,1367.5889 1373.3821,1367.5889 1373.3821,1383.2139 L1373.3821,1448.2041 C1373.3821,1463.8291 1279.6833,1463.8291 1279.6833,1463.8291 C1279.6833,1463.8291 1185.9844,1463.8291 1185.9844,1448.2041 L1185.9844,1383.2139" fill="#ECFDF5" style="stroke:#10B981;stroke-width:0.7813;"/><path d="M1185.9844,1383.2139 C1185.9844,1398.8389 1279.6833,1398.8389 1279.6833,1398.8389 C1279.6833,1398.8389 1373.3821,1398.8389 1373.3821,1383.2139" fill="none" style="stroke:#10B981;stroke-width:0.7813;"/><text fill="#064E3B" font-family="'Inter'" font-size="21.875" lengthAdjust="spacing" textLength="156.1478" x="1201.6094" y="1425.3937">VictoriaTraces</text><text fill="#064E3B" font-family="'Inter'" font-size="21.875" lengthAdjust="spacing" textLength="121.4661" x="1201.6094" y="1450.8576">StatefulSet</text></g><!--entity ingress--><g class="entity" data-qualified-name="ingress" data-source-line="82" id="ent0024"><path d="M1210.6424,1628.3201 C1218.1494,1616.9202 1225.478,1614.5465 1234.4662,1626.8302 C1239.8083,1616.3899 1249.3468,1615.6824 1255.7958,1625.6745 C1261.5932,1615.4489 1271.5421,1614.7664 1277.6231,1625.3775 C1285.4794,1615.2756 1294.6548,1617.1908 1300.1412,1627.9372 C1306.8957,1616.8265 1315.3763,1617.671 1322.8314,1627.1657 C1331.1323,1615.4939 1340.3046,1614.1588 1347.7153,1628.0328 C1353.5908,1616.9132 1363.611,1616.2555 1370.3481,1627.1468 C1376.3674,1617.4004 1387.364,1617.7432 1392.9454,1627.6502 C1397.7979,1616.2652 1404.6039,1616.1439 1412.4343,1624.7465 C1420.789,1612.95 1432.5343,1615.1391 1438.5446,1627.3013 C1444.8432,1616.9868 1454.8045,1619.5288 1459.1539,1629.3013 C1463.5517,1616.8937 1471.3958,1616.2862 1479.6593,1625.6625 C1488.4018,1616.6424 1496.0009,1615.7045 1502.0628,1628.425 C1509.2931,1617.0128 1520.4798,1619.801 1525.9242,1630.3641 C1542.1116,1638.0387 1540.7111,1654.3249 1527.7557,1663.6052 C1544.6457,1676.0561 1543.9447,1691.2618 1525.7248,1701.8482 C1518.7831,1712.4948 1511.7067,1711.7118 1505.319,1701.3111 C1499.1553,1712.1413 1490.0468,1712.1439 1482.3503,1703.0808 C1474.0704,1715.422 1463.921,1713.6356 1458.3243,1700.5458 C1452.6862,1710.4341 1445.6453,1710.4762 1438.227,1702.5546 C1430.8864,1714.2045 1420.6363,1711.6858 1414.9769,1700.8187 C1409.3461,1711.3729 1399.5999,1715.2321 1391.4276,1703.5049 C1383.7167,1715.0377 1375.666,1715.9708 1367.5919,1703.8712 C1359.1608,1715.4397 1352.2725,1714.5647 1345.046,1702.7116 C1339.4851,1712.7955 1328.4207,1712.4846 1322.8764,1702.6931 C1316.7517,1711.4723 1309.6866,1710.7198 1303.7802,1702.4485 C1296.2636,1716.5419 1283.9085,1714.088 1277.5456,1701.3216 C1272.7609,1710.4884 1265.6651,1711.1941 1258.6351,1703.9012 C1251.8456,1714.6666 1240.7645,1714.2071 1234.4504,1703.3691 C1226.3262,1713.2574 1218.9337,1711.4119 1212.1018,1701.8819 C1192.6867,1695.9922 1185.0517,1682.6451 1201.147,1665.9339 C1184.6258,1650.6506 1190.143,1634.2578 1210.6424,1628.3201" fill="#F3F4F6" style="stroke:#9CA3AF;stroke-width:0.7813;"/><text fill="#000000" font-family="'Inter'" font-size="21.875" lengthAdjust="spacing" textLength="164.1052" x="1220.8906" y="1657.5812">Ingress (nginx)</text><text fill="#000000" font-family="'Inter'" font-size="21.875" lengthAdjust="spacing" textLength="292.5888" x="1220.8906" y="1683.0451">namespace&#8209;prefixed paths</text></g><g class="entity" data-qualified-name="GMN52" data-source-line="121" id="ent0053"><path d="M657.2969,1627.2764 L657.2969,1698.2114 A7.8125,7.8125 0 0 0 665.1094,1706.0239 L934.9038,1706.0239 A7.8125,7.8125 0 0 0 942.7163,1698.2114 L942.7163,1635.0889 L927.0913,1619.4639 L847.6563,1619.4639 L841.4063,1464.5264 L835.1563,1619.4639 L665.1094,1619.4639 A7.8125,7.8125 0 0 0 657.2969,1627.2764" fill="#FFFBEB" style="stroke:#F59E0B;stroke-width:0.7813;"/><path d="M927.0913,1619.4639 L927.0913,1631.1826 A3.9063,3.9063 0 0 0 930.9976,1635.0889 L942.7163,1635.0889 L927.0913,1619.4639" fill="#FFFBEB" style="stroke:#F59E0B;stroke-width:0.7813;"/><text fill="#92400E" font-family="'Inter'" font-size="20.3125" lengthAdjust="spacing" textLength="153.9207" x="666.6719" y="1646.1309">Logs ingestion:</text><text fill="#92400E" font-family="'Inter'" font-size="20.3125" lengthAdjust="spacing" textLength="213.3011" x="666.6719" y="1669.7759">- Fluent Bit (tail files)</text><text fill="#92400E" font-family="'Inter'" font-size="20.3125" lengthAdjust="spacing" textLength="252.607" x="666.6719" y="1693.4209">- vlagent (k8s metadata)</text></g><g class="entity" data-qualified-name="GMN55" data-source-line="127" id="ent0056"><path d="M1166.3594,1813.1982 L1166.3594,1884.1333 A7.8125,7.8125 0 0 0 1174.1719,1891.9458 L1560.2177,1891.9458 A7.8125,7.8125 0 0 0 1568.0302,1884.1333 L1568.0302,1821.0107 L1552.4052,1805.3857 L1373.4375,1805.3857 L1367.1875,1712.0732 L1360.9375,1805.3857 L1174.1719,1805.3857 A7.8125,7.8125 0 0 0 1166.3594,1813.1982" fill="#FFFBEB" style="stroke:#F59E0B;stroke-width:0.7813;"/><path d="M1552.4052,1805.3857 L1552.4052,1817.1045 A3.9063,3.9063 0 0 0 1556.3115,1821.0107 L1568.0302,1821.0107 L1552.4052,1805.3857" fill="#FFFBEB" style="stroke:#F59E0B;stroke-width:0.7813;"/><text fill="#92400E" font-family="'Inter'" font-size="20.3125" lengthAdjust="spacing" textLength="368.8583" x="1175.7344" y="1832.0528">Paths are namespace&#8209;prefixed, e.g.:</text><text fill="#92400E" font-family="'Inter'" font-size="20.3125" lengthAdjust="spacing" textLength="205.1582" x="1175.7344" y="1855.6978">/grafascope/grafana</text><text fill="#92400E" font-family="'Inter'" font-size="20.3125" lengthAdjust="spacing" textLength="251.0895" x="1175.7344" y="1879.3428">/grafascope/victoria&#8209;logs</text></g><!--link svcA to svcB--><!--link svcA to svcB--><g class="link" data-entity-1="ent0004" data-entity-2="ent0005" data-link-type="dependency" data-source-line="113" id="lnk48"><path d="M360.9375,987.4014 C360.9375,1016.0107 360.9375,1042.5264 360.9375,1071.0889" fill="none" id="svcA-to-svcB-1" style="stroke:#64748B;stroke-width:2.5;"/><polygon fill="#64748B" points="360.9375,1080.4639,367.1875,1066.4014,360.9375,1072.6514,354.6875,1066.4014,360.9375,1080.4639" style="stroke:#64748B;stroke-width:2.5;"/><text fill="#000000" font-family="'Inter'" font-size="20.3125" lengthAdjust="spacing" textLength="52.3384" x="307.8125" y="1027.7871">HTTP</text></g><!--link vmagent to fluentbit--><!--link fluentbit to logfiles--><!--link logfiles to fluentbit--><g class="link" data-entity-1="ent0011" data-entity-2="ent0010" data-link-type="dependency" data-source-line="105" id="lnk44"><path d="M219.0625,431.9639 C219.0625,404.0264 219.0625,377.2139 219.0625,348.3857" fill="none" id="logfiles-to-fluentbit" style="stroke:#F59E0B;stroke-width:2.5;"/><polygon fill="#F59E0B" points="219.0625,339.0107,212.8125,353.0732,219.0625,346.8232,225.3125,353.0732,219.0625,339.0107" style="stroke:#F59E0B;stroke-width:2.5;"/><text fill="#000000" font-family="'Inter'" font-size="20.3125" lengthAdjust="spacing" textLength="31.6986" x="186.25" y="379.334">tail</text></g><!--link grafana to vmetrics--><!--link grafana to vmetrics--><g class="link" data-entity-1="ent0015" data-entity-2="ent0016" data-link-type="dependency" data-source-line="116" id="lnk49"><path d="M1066.7344,987.4014 C1066.7344,1079.4014 1066.7344,1266.7451 1066.7344,1358.0107" fill="none" id="grafana-to-vmetrics-1" style="stroke:#0EA5E9;stroke-width:2.5;stroke-dasharray:10.9375,10.9375;"/><polygon fill="#0EA5E9" points="1066.7344,1367.3857,1072.9844,1353.3232,1066.7344,1359.5732,1060.4844,1353.3232,1066.7344,1367.3857" style="stroke:#0EA5E9;stroke-width:2.5;"/><text fill="#000000" font-family="'Inter'" font-size="20.3125" lengthAdjust="spacing" textLength="157.0946" x="908.9219" y="1171.2403">Prometheus DS</text></g><!--link vmetrics to vlogs--><!--link vlogs to vtraces--><!--link demo to scrapers--><!--link scrapers to core--><!--link ns to ingress--><!--reverse link grafana to ingress--><g class="link" data-entity-1="ent0015" data-entity-2="ent0024" data-link-type="dependency" data-source-line="86" id="lnk27"><path d="M1142.5469,921.6357 C1253.9531,921.6357 1410.375,921.6357 1410.375,921.6357 C1410.375,921.6357 1410.375,1448.0107 1410.375,1613.542" fill="none" id="grafana-backto-ingress" style="stroke:#2563EB;stroke-width:2.5;"/><polygon fill="#2563EB" points="1133.1719,921.6357,1147.2344,927.8857,1140.9844,921.6357,1147.2344,915.3857,1133.1719,921.6357" style="stroke:#2563EB;stroke-width:2.5;"/><text fill="#000000" font-family="'Inter'" font-size="20.3125" lengthAdjust="spacing" textLength="149.7948" x="1260.375" y="1122.834">/&lt;ns&gt;/grafana</text></g><!--reverse link vmetrics to ingress--><g class="link" data-entity-1="ent0016" data-entity-2="ent0024" data-link-type="dependency" data-source-line="87" id="lnk29"><path d="M1037.0781,1473.792 C1037.0781,1545.6514 1037.0781,1662.2607 1037.0781,1662.2607 C1037.0781,1662.2607 1116.0938,1662.2607 1196.8125,1662.2607" fill="none" id="vmetrics-backto-ingress" style="stroke:#2563EB;stroke-width:2.5;"/><polygon fill="#2563EB" points="1037.0781,1464.417,1030.8281,1478.4795,1037.0781,1472.2295,1043.3281,1478.4795,1037.0781,1464.417" style="stroke:#2563EB;stroke-width:2.5;"/><text fill="#000000" font-family="'Inter'" font-size="20.3125" lengthAdjust="spacing" textLength="230.172" x="980.4375" y="1663.6309">/&lt;ns&gt;/victoria-metrics</text></g><!--reverse link vlogs to ingress--><g class="link" data-entity-1="ent0017" data-entity-2="ent0024" data-link-type="dependency" data-source-line="88" id="lnk31"><path d="M758.5938,1473.5889 C758.5938,1516.7764 758.5938,1563.8232 758.5938,1563.8232 C758.5938,1563.8232 1256.0938,1563.8232 1256.0938,1563.8232 C1256.0938,1563.8232 1256.0938,1588.5576 1256.0938,1613.2764" fill="none" id="vlogs-backto-ingress" style="stroke:#2563EB;stroke-width:2.5;"/><polygon fill="#2563EB" points="758.5938,1464.2139,752.3438,1478.2764,758.5938,1472.0264,764.8438,1478.2764,758.5938,1464.2139" style="stroke:#2563EB;stroke-width:2.5;"/><text fill="#000000" font-family="'Inter'" font-size="20.3125" lengthAdjust="spacing" textLength="195.726" x="785.3906" y="1557.6778">/&lt;ns&gt;/victoria-logs</text></g><!--reverse link vtraces to ingress--><g class="link" data-entity-1="ent0018" data-entity-2="ent0024" data-link-type="dependency" data-source-line="89" id="lnk33"><path d="M1314.75,1473.9014 C1314.75,1516.917 1314.75,1569.9482 1314.75,1613.1826" fill="none" id="vtraces-backto-ingress" style="stroke:#2563EB;stroke-width:2.5;"/><polygon fill="#2563EB" points="1314.75,1464.5264,1308.5,1478.5889,1314.75,1472.3389,1321,1478.5889,1314.75,1464.5264" style="stroke:#2563EB;stroke-width:2.5;"/><text fill="#000000" font-family="'Inter'" font-size="20.3125" lengthAdjust="spacing" textLength="217.189" x="1096" y="1532.709">/&lt;ns&gt;/victoria-traces</text></g><!--reverse link vmagent to ingress--><g class="link" data-entity-1="ent0009" data-entity-2="ent0024" data-link-type="dependency" data-source-line="90" id="lnk35"><path d="M575.4844,301.3232 C824.3594,301.3232 1447.375,301.3232 1447.375,301.3232 C1447.375,301.3232 1447.375,1368.2295 1447.375,1613.0732" fill="none" id="vmagent-backto-ingress" style="stroke:#2563EB;stroke-width:2.5;"/><polygon fill="#2563EB" points="566.1094,301.3232,580.1719,307.5732,573.9219,301.3232,580.1719,295.0732,566.1094,301.3232" style="stroke:#2563EB;stroke-width:2.5;"/><text fill="#000000" font-family="'Inter'" font-size="20.3125" lengthAdjust="spacing" textLength="161.6669" x="1284.875" y="510.4278">/&lt;ns&gt;/vmagent</text></g><!--link vmagent to svcA--><g class="link" data-entity-1="ent0009" data-entity-2="ent0004" data-link-type="dependency" data-source-line="93" id="lnk36"><path d="M477.1406,339.4326 C477.1406,487.9639 477.1406,920.0732 477.1406,920.0732 C477.1406,920.0732 479.4688,920.0732 468.8594,920.0732" fill="none" id="vmagent-to-svcA" style="stroke:#10B981;stroke-width:2.5;stroke-dasharray:10.9375,10.9375;"/><polygon fill="#10B981" points="459.4844,920.0732,473.5469,926.3232,467.2969,920.0732,473.5469,913.8232,459.4844,920.0732" style="stroke:#10B981;stroke-width:2.5;"/><text fill="#000000" font-family="'Inter'" font-size="20.3125" lengthAdjust="spacing" textLength="157.2334" x="478.7031" y="632.4278">scrape /metrics</text></g><!--link vmagent to svcB--><g class="link" data-entity-1="ent0009" data-entity-2="ent0005" data-link-type="dependency" data-source-line="94" id="lnk37"><path d="M494.8125,339.667 C494.8125,517.7764 494.8125,1113.8232 494.8125,1113.8232 C494.8125,1113.8232 489.0781,1113.8232 469.0156,1113.8232" fill="none" id="vmagent-to-svcB" style="stroke:#10B981;stroke-width:2.5;stroke-dasharray:10.9375,10.9375;"/><polygon fill="#10B981" points="459.6406,1113.8232,473.7031,1120.0732,467.4531,1113.8232,473.7031,1107.5732,459.6406,1113.8232" style="stroke:#10B981;stroke-width:2.5;"/><text fill="#000000" font-family="'Inter'" font-size="20.3125" lengthAdjust="spacing" textLength="157.2334" x="496.375" y="738.1778">scrape /metrics</text></g><!--link vmagent to grafana--><g class="link" data-entity-1="ent0009" data-entity-2="ent0015" data-link-type="dependency" data-source-line="95" id="lnk38"><path d="M548.7656,339.2295 C548.7656,485.042 548.7656,904.4482 548.7656,904.4482 C548.7656,904.4482 784.1563,904.4482 926.1406,904.4482" fill="none" id="vmagent-to-grafana" style="stroke:#10B981;stroke-width:2.5;stroke-dasharray:10.9375,10.9375;"/><polygon fill="#10B981" points="935.5156,904.4482,921.4531,898.1982,927.7031,904.4482,921.4531,910.6982,935.5156,904.4482" style="stroke:#10B981;stroke-width:2.5;"/><text fill="#000000" font-family="'Inter'" font-size="20.3125" lengthAdjust="spacing" textLength="157.2334" x="390.9531" y="809.0684">scrape /metrics</text></g><!--link vmagent to vmetrics--><g class="link" data-entity-1="ent0009" data-entity-2="ent0016" data-link-type="dependency" data-source-line="96" id="lnk39"><path d="M565.6563,320.0732 C698.4219,320.0732 918.4219,320.0732 918.4219,320.0732 C918.4219,320.0732 918.4219,1391.9482 918.4219,1391.9482 C918.4219,1391.9482 916.2969,1391.9482 927.1563,1391.9482" fill="none" id="vmagent-to-vmetrics" style="stroke:#10B981;stroke-width:2.5;stroke-dasharray:10.9375,10.9375;"/><polygon fill="#10B981" points="936.5313,1391.9482,922.4688,1385.6982,928.7188,1391.9482,922.4688,1398.1982,936.5313,1391.9482" style="stroke:#10B981;stroke-width:2.5;"/><text fill="#000000" font-family="'Inter'" font-size="20.3125" lengthAdjust="spacing" textLength="157.2334" x="760.6094" y="682.5371">scrape /metrics</text></g><!--link vmagent to vmetrics--><g class="link" data-entity-1="ent0009" data-entity-2="ent0016" data-link-type="dependency" data-source-line="101" id="lnk42"><path d="M566.0781,329.4482 C694,329.4482 900.6094,329.4482 900.6094,329.4482 C900.6094,329.4482 900.6094,1415.3857 900.6094,1415.3857 C900.6094,1415.3857 907.0469,1415.3857 927.7813,1415.3857" fill="none" id="vmagent-to-vmetrics-1" style="stroke:#059669;stroke-width:2.5;"/><polygon fill="#059669" points="937.1563,1415.3857,923.0938,1409.1357,929.3438,1415.3857,923.0938,1421.6357,937.1563,1415.3857" style="stroke:#059669;stroke-width:2.5;"/><text fill="#000000" font-family="'Inter'" font-size="20.3125" lengthAdjust="spacing" textLength="134.7488" x="764.6719" y="717.2871">remote_write</text></g><!--link vmagent to vlogs--><g class="link" data-entity-1="ent0009" data-entity-2="ent0017" data-link-type="dependency" data-source-line="97" id="lnk40"><path d="M532.2031,339.0576 C532.2031,555.667 532.2031,1415.3857 532.2031,1415.3857 C532.2031,1415.3857 628.75,1415.3857 707.3594,1415.3857" fill="none" id="vmagent-to-vlogs" style="stroke:#10B981;stroke-width:2.5;stroke-dasharray:10.9375,10.9375;"/><polygon fill="#10B981" points="716.7344,1415.3857,702.6719,1409.1357,708.9219,1415.3857,702.6719,1421.6357,716.7344,1415.3857" style="stroke:#10B981;stroke-width:2.5;"/><text fill="#000000" font-family="'Inter'" font-size="20.3125" lengthAdjust="spacing" textLength="157.2334" x="533.7656" y="963.3496">scrape /metrics</text></g><!--link vmagent to vtraces--><g class="link" data-entity-1="ent0009" data-entity-2="ent0018" data-link-type="dependency" data-source-line="98" id="lnk41"><path d="M566,310.6982 C793.6875,310.6982 1335.9063,310.6982 1335.9063,310.6982 C1335.9063,310.6982 1335.9063,1145.4639 1335.9063,1358.1514" fill="none" id="vmagent-to-vtraces" style="stroke:#10B981;stroke-width:2.5;stroke-dasharray:10.9375,10.9375;"/><polygon fill="#10B981" points="1335.9063,1367.5264,1342.1563,1353.4639,1335.9063,1359.7139,1329.6563,1353.4639,1335.9063,1367.5264" style="stroke:#10B981;stroke-width:2.5;"/><text fill="#000000" font-family="'Inter'" font-size="20.3125" lengthAdjust="spacing" textLength="157.2334" x="1178.0938" y="448.0059">scrape /metrics</text></g><!--link fluentbit to vlogs--><g class="link" data-entity-1="ent0010" data-entity-2="ent0017" data-link-type="dependency" data-source-line="102" id="lnk43"><path d="M266.5781,339.5264 C266.5781,362.8701 266.5781,385.6982 266.5781,385.6982 C266.5781,385.6982 772.4063,385.6982 772.4063,385.6982 C772.4063,385.6982 772.4063,1154.4014 772.4063,1358.042" fill="none" id="fluentbit-to-vlogs" style="stroke:#F59E0B;stroke-width:2.5;"/><polygon fill="#F59E0B" points="772.4063,1367.417,778.6562,1353.3545,772.4063,1359.6045,766.1563,1353.3545,772.4063,1367.417" style="stroke:#F59E0B;stroke-width:2.5;"/><text fill="#000000" font-family="'Inter'" font-size="20.3125" lengthAdjust="spacing" textLength="149.7849" x="622.4063" y="594.4121">/insert/jsonline</text></g><!--link svcA to vtraces--><g class="link" data-entity-1="ent0004" data-entity-2="ent0018" data-link-type="dependency" data-source-line="108" id="lnk45"><path d="M410.0156,987.2295 C410.0156,1010.8701 410.0156,1034.1357 410.0156,1034.1357 C410.0156,1034.1357 1260.9531,1034.1357 1260.9531,1034.1357 C1260.9531,1034.1357 1260.9531,1255.3389 1260.9531,1358.0107" fill="none" id="svcA-to-vtraces" style="stroke:#8B5CF6;stroke-width:2.5;"/><polygon fill="#8B5CF6" points="1260.9531,1367.3857,1267.2031,1353.3232,1260.9531,1359.5732,1254.7031,1353.3232,1260.9531,1367.3857" style="stroke:#8B5CF6;stroke-width:2.5;"/><text fill="#000000" font-family="'Inter'" font-size="20.3125" lengthAdjust="spacing" textLength="110.7567" x="867.7188" y="1027.9903">OTLP HTTP</text></g><!--link svcB to vtraces--><g class="link" data-entity-1="ent0005" data-entity-2="ent0018" data-link-type="dependency" data-source-line="109" id="lnk46"><path d="M459.4531,1146.6357 C685.7813,1146.6357 1223.4688,1146.6357 1223.4688,1146.6357 C1223.4688,1146.6357 1223.4688,1280.0732 1223.4688,1357.6045" fill="none" id="svcB-to-vtraces" style="stroke:#8B5CF6;stroke-width:2.5;"/><polygon fill="#8B5CF6" points="1223.4688,1366.9795,1229.7188,1352.917,1223.4688,1359.167,1217.2188,1352.917,1223.4688,1366.9795" style="stroke:#8B5CF6;stroke-width:2.5;"/><text fill="#000000" font-family="'Inter'" font-size="20.3125" lengthAdjust="spacing" textLength="110.7567" x="840.7031" y="1140.4903">OTLP HTTP</text></g><!--link loadgen to svcA--><g class="link" data-entity-1="ent0006" data-entity-2="ent0004" data-link-type="dependency" data-source-line="112" id="lnk47"><path d="M360.9375,785.1201 C360.9375,816.7295 360.9375,848.167 360.9375,879.6826" fill="none" id="loadgen-to-svcA" style="stroke:#64748B;stroke-width:2.5;"/><polygon fill="#64748B" points="360.9375,889.0576,367.1875,874.9951,360.9375,881.2451,354.6875,874.9951,360.9375,889.0576" style="stroke:#64748B;stroke-width:2.5;"/><text fill="#000000" font-family="'Inter'" font-size="20.3125" lengthAdjust="spacing" textLength="52.3384" x="307.8125" y="830.9434">HTTP</text></g><!--link grafana to vlogs--><g class="link" data-entity-1="ent0015" data-entity-2="ent0017" data-link-type="dependency" data-source-line="117" id="lnk50"><path d="M935.8281,963.8232 C882.5781,963.8232 827.5938,963.8232 827.5938,963.8232 C827.5938,963.8232 827.5938,1240.6982 827.5938,1357.5576" fill="none" id="grafana-to-vlogs" style="stroke:#0EA5E9;stroke-width:2.5;stroke-dasharray:10.9375,10.9375;"/><polygon fill="#0EA5E9" points="827.5938,1366.9326,833.8438,1352.8701,827.5938,1359.1201,821.3438,1352.8701,827.5938,1366.9326" style="stroke:#0EA5E9;stroke-width:2.5;"/><text fill="#000000" font-family="'Inter'" font-size="20.3125" lengthAdjust="spacing" textLength="159.7527" x="666.6563" y="1105.1153">VictoriaLogs DS</text></g><!--link grafana to vtraces--><g class="link" data-entity-1="ent0015" data-entity-2="ent0018" data-link-type="dependency" data-source-line="118" id="lnk51"><path d="M1132.7031,954.4482 C1207.7656,954.4482 1298.4219,954.4482 1298.4219,954.4482 C1298.4219,954.4482 1298.4219,1239.417 1298.4219,1357.8545" fill="none" id="grafana-to-vtraces" style="stroke:#0EA5E9;stroke-width:2.5;stroke-dasharray:10.9375,10.9375;"/><polygon fill="#0EA5E9" points="1298.4219,1367.2295,1304.6719,1353.167,1298.4219,1359.417,1292.1719,1353.167,1298.4219,1367.2295" style="stroke:#0EA5E9;stroke-width:2.5;"/><text fill="#000000" font-family="'Inter'" font-size="20.3125" lengthAdjust="spacing" textLength="99.6681" x="1198.4219" y="1071.8184">Jaeger DS</text></g><?plantuml-src ZLRRRkCs47tNLn3sG-ssliMs71l50fObzRPj0oJOboGeQ8cMsSYaG5BEfaM1_a9_iL_I8KKficHluYUBCtCuF3CyGqLLIj3t0k-mZ7X6K2_YWg1lqF604y8K_DkbEVmPRAd-YCc13t2MoRxZo2VACYpm0SazZlapPGdQuLIIcYKcEvodAkHC_OeF17L-P8g8JirZYwEdHF2SnHkUSe6weVdLF8mHqc94eCcu3fvHD9dNLrBAY7g1Ot2XzhoUOfJoF4P_EGXvhGsduInqjOMBc0Yxkjoif-lG-Vi4X1yopZGjPu628Bo2p1j0xjHrmmciQXBiscGokRvQd8B7ME4jbkG2zYRqmtaJUpBsbjSDxB4x2wRUAVPEQFBFdxwWkm4Sp8D5uBsTT0Pmq2WNe9VXElIQqFx4d_llW6PSNKxP2rguuNmPZ1kuowlPU1oSugw5uC_MFbtC9lD9qtYtfz4J8rAYoT1r7CKpf3ZQSgKub8aA4YdAcUCKh7P-phS4cbCHYHWiIE24h51ItQaEmc2HvYoA9qJjeP7r1whew_Xmhv2-LyPPtp8uK11EDmlhYMhDrv5476b4_lldN_p0V9Ab_EK01XChZz4QwkS7op3uKkJsNAHtEJBbE8Om40KYiEAY5QuTmDf0CEaCxlSqZWbx53JPgy47ivLnWCgSy70R2PmHKT0WxGT0ZeD569wZmkfKAvjIlxg-5wohR1YFOPFGA1hog0x3m3Mx9KLKeNLQwaxZi51qXoFORtJ4OfJoP1H1bs6G6o57NmzXuO7r33hyHJkQ4jcth2JcotJj8l0jO9bUYvag0-lucb7b2bBBmBD4FilZ1bJSx6_alEjlmarmjfMCzBDs6oN5kgOUHAtaeTAepYSQGHDG_0jHWaRoWTqghCWkJqigZuV2KfEkymWVUN8k78xtTkoTWBjsBbePGoE-F5EJoJBLgZOsyrPnJ5AbbqcmxLBiR8jY2sFkS_iIsFO6XwhJMqwwVbg_Yla5upCHMfXwBA7iS_-1LOe3TpCJP4S_anZQGEsBAqIjVpdac6oTtheupbUeH0UnrMhMsmaGl4Bt-au9DSYp--xLt9q6tYE4bwIkqEWx9Z-CxFSbzuhSqlzeIpaeYt0fqF3TYZ8LkHHYkw0LP6jqCSNYRbPXnRScw2PFKzIBiToJkE-KZiFXlPt4ZyFXXqBoLhQcQ5IUwxAtztxlLxRV6L3Z-xqHbkZtkbSaDmCCNtAFUfAdj4RNuBuxdYzTTzde1m6tH97VdmLLnAdhdXtj9rr06OmoDVf3SgOVVNep418aUIuYubIgUnByYhb2eDsf3YeK1FKooBJls6dLlVRccz0zxQ7VxZxUe1_kxcuSKx8tlG3SJ7Kz5rS8qdn1jRdjbECISDpPOdPjChIjK-woRbczqWhedwZCSKh_nFerea-GfdsdR11TfN6mdWVBPXlSmANMRv1S8l_seh_bkIxINtAlplyJ9WayRy3LCGyu-shYkqey3HHSFI9rtYjO6Q3NYOnwkZ9sWXhRCItQflTqBH5aZlKOw3k4nUQ9sDgdr3E4RhGCmkmcw9nAVel8C1dg_KUlRxLAlavNI-M0S7EAQlF_0G00?></g></svg>