<svg xmlns="http://www.w3.org/2000/svg" width="1200" height="520" viewBox="0 0 1200 520">
  <rect width="1200" height="520" fill="#f8f9fb"/>
  <text x="600" y="48" text-anchor="middle" font-family="Arial, Helvetica, sans-serif" font-size="24" fill="#2a2a2a">Collection to storage to dashboards</text>

  <rect x="80" y="140" width="280" height="240" rx="14" fill="#ffffff" stroke="#7d8ea3" stroke-width="3"/>
  <text x="220" y="195" text-anchor="middle" font-family="Arial, Helvetica, sans-serif" font-size="18" fill="#2a2a2a">Collectors</text>
  <text x="220" y="235" text-anchor="middle" font-family="Arial, Helvetica, sans-serif" font-size="14" fill="#2a2a2a">Prometheus / vmagent</text>
  <text x="220" y="265" text-anchor="middle" font-family="Arial, Helvetica, sans-serif" font-size="14" fill="#2a2a2a">Promtail / fluent-bit</text>
  <text x="220" y="295" text-anchor="middle" font-family="Arial, Helvetica, sans-serif" font-size="14" fill="#2a2a2a">OTel SDKs / collectors</text>

  <rect x="460" y="140" width="280" height="240" rx="14" fill="#ffffff" stroke="#7d8ea3" stroke-width="3"/>
  <text x="600" y="195" text-anchor="middle" font-family="Arial, Helvetica, sans-serif" font-size="18" fill="#2a2a2a">Storage</text>
  <text x="600" y="235" text-anchor="middle" font-family="Arial, Helvetica, sans-serif" font-size="14" fill="#2a2a2a">VictoriaMetrics</text>
  <text x="600" y="265" text-anchor="middle" font-family="Arial, Helvetica, sans-serif" font-size="14" fill="#2a2a2a">VictoriaLogs</text>
  <text x="600" y="295" text-anchor="middle" font-family="Arial, Helvetica, sans-serif" font-size="14" fill="#2a2a2a">VictoriaTraces</text>

  <rect x="840" y="140" width="280" height="240" rx="14" fill="#ffffff" stroke="#7d8ea3" stroke-width="3"/>
  <text x="980" y="195" text-anchor="middle" font-family="Arial, Helvetica, sans-serif" font-size="18" fill="#2a2a2a">UX</text>
  <text x="980" y="235" text-anchor="middle" font-family="Arial, Helvetica, sans-serif" font-size="14" fill="#2a2a2a">Grafana dashboards</text>
  <text x="980" y="265" text-anchor="middle" font-family="Arial, Helvetica, sans-serif" font-size="14" fill="#2a2a2a">Alerts and SLOs</text>
  <text x="980" y="295" text-anchor="middle" font-family="Arial, Helvetica, sans-serif" font-size="14" fill="#2a2a2a">Cross-links</text>

  <line x1="360" y1="260" x2="460" y2="260" stroke="#3b6fb6" stroke-width="4"/>
  <polygon points="452,252 468,260 452,268" fill="#3b6fb6"/>
  <line x1="740" y1="260" x2="840" y2="260" stroke="#3b6fb6" stroke-width="4"/>
  <polygon points="832,252 848,260 832,268" fill="#3b6fb6"/>
</svg>
