<svg xmlns="http://www.w3.org/2000/svg" width="1200" height="600" viewBox="0 0 1200 600">
  <rect width="1200" height="600" fill="#f8f9fb"/>
  <rect x="420" y="240" width="360" height="90" rx="14" fill="#3b6fb6"/>
  <text x="600" y="295" text-anchor="middle" font-family="Arial, Helvetica, sans-serif" font-size="28" fill="#ffffff">Observability Hub</text>
  <text x="600" y="340" text-anchor="middle" font-family="Arial, Helvetica, sans-serif" font-size="18" fill="#2a2a2a">Single place for microservice observability</text>

  <rect x="80" y="90" width="220" height="140" rx="14" fill="#4d79c7"/>
  <text x="190" y="165" text-anchor="middle" font-family="Arial, Helvetica, sans-serif" font-size="22" fill="#ffffff">Metrics</text>

  <rect x="80" y="370" width="220" height="140" rx="14" fill="#e6862f"/>
  <text x="190" y="445" text-anchor="middle" font-family="Arial, Helvetica, sans-serif" font-size="22" fill="#ffffff">Traces</text>

  <rect x="900" y="230" width="220" height="140" rx="14" fill="#4e9c67"/>
  <text x="1010" y="305" text-anchor="middle" font-family="Arial, Helvetica, sans-serif" font-size="22" fill="#ffffff">Logs</text>

  <line x1="300" y1="160" x2="420" y2="270" stroke="#3b6fb6" stroke-width="4"/>
  <polygon points="418,262 430,275 412,280" fill="#3b6fb6"/>

  <line x1="300" y1="440" x2="420" y2="330" stroke="#3b6fb6" stroke-width="4"/>
  <polygon points="412,320 430,330 418,340" fill="#3b6fb6"/>

  <line x1="780" y1="285" x2="900" y2="300" stroke="#3b6fb6" stroke-width="4"/>
  <polygon points="892,292 908,301 892,308" fill="#3b6fb6"/>
</svg>
